<?xml version="1.0" encoding="UTF-8" standalone="no"?>
<!-- Created with Inkscape (http://www.inkscape.org/) -->

<svg
   version="1.1"
   id="svg1"
   width="657.45349"
   height="188.97598"
   viewBox="0 0 657.45349 188.97598"
   sodipodi:docname="hvl_logo_engelsk.pdf"
   xmlns:inkscape="http://www.inkscape.org/namespaces/inkscape"
   xmlns:sodipodi="http://sodipodi.sourceforge.net/DTD/sodipodi-0.dtd"
   xmlns="http://www.w3.org/2000/svg"
   xmlns:svg="http://www.w3.org/2000/svg">
  <defs
     id="defs1">
    <clipPath
       clipPathUnits="userSpaceOnUse"
       id="clipPath4">
      <path
         d="M 0,325.984 H 737.008 V 0 H 0 Z"
         transform="translate(-318.34941,-209.05801)"
         id="path4" />
    </clipPath>
    <clipPath
       clipPathUnits="userSpaceOnUse"
       id="clipPath6">
      <path
         d="M 0,325.984 H 737.008 V 0 H 0 Z"
         transform="translate(-348.77151,-199.82581)"
         id="path6" />
    </clipPath>
    <clipPath
       clipPathUnits="userSpaceOnUse"
       id="clipPath8">
      <path
         d="M 0,325.984 H 737.008 V 0 H 0 Z"
         transform="translate(-356.39281,-194.1065)"
         id="path8" />
    </clipPath>
    <clipPath
       clipPathUnits="userSpaceOnUse"
       id="clipPath10">
      <path
         d="M 0,325.984 H 737.008 V 0 H 0 Z"
         transform="translate(-375.15431,-204.38551)"
         id="path10" />
    </clipPath>
    <clipPath
       clipPathUnits="userSpaceOnUse"
       id="clipPath12">
      <path
         d="M 0,325.984 H 737.008 V 0 H 0 Z"
         transform="translate(-402.51341,-199.82581)"
         id="path12" />
    </clipPath>
    <clipPath
       clipPathUnits="userSpaceOnUse"
       id="clipPath14">
      <path
         d="M 0,325.984 H 737.008 V 0 H 0 Z"
         transform="translate(-422.02221,-207.71261)"
         id="path14" />
    </clipPath>
    <clipPath
       clipPathUnits="userSpaceOnUse"
       id="clipPath16">
      <path
         d="M 0,325.984 H 737.008 V 0 H 0 Z"
         transform="translate(-438.13091,-198.81631)"
         id="path16" />
    </clipPath>
    <clipPath
       clipPathUnits="userSpaceOnUse"
       id="clipPath18">
      <path
         d="M 0,325.984 H 737.008 V 0 H 0 Z"
         transform="translate(-456.02971,-214.8521)"
         id="path18" />
    </clipPath>
    <clipPath
       clipPathUnits="userSpaceOnUse"
       id="clipPath20">
      <path
         d="M 0,325.984 H 737.008 V 0 H 0 Z"
         transform="translate(-489.32961,-204.38551)"
         id="path20" />
    </clipPath>
    <clipPath
       clipPathUnits="userSpaceOnUse"
       id="clipPath22">
      <path
         d="M 0,325.984 H 737.008 V 0 H 0 Z"
         transform="translate(-512.80091,-207.71261)"
         id="path22" />
    </clipPath>
    <clipPath
       clipPathUnits="userSpaceOnUse"
       id="clipPath24">
      <path
         d="M 0,325.984 H 737.008 V 0 H 0 Z"
         transform="translate(-527.82551,-202.442)"
         id="path24" />
    </clipPath>
    <clipPath
       clipPathUnits="userSpaceOnUse"
       id="clipPath26">
      <path
         d="M 0,325.984 H 737.008 V 0 H 0 Z"
         transform="translate(-556.45291,-195.8633)"
         id="path26" />
    </clipPath>
    <clipPath
       clipPathUnits="userSpaceOnUse"
       id="clipPath28">
      <path
         d="M 0,325.984 H 737.008 V 0 H 0 Z"
         transform="translate(-576.85841,-207.4505)"
         id="path28" />
    </clipPath>
    <clipPath
       clipPathUnits="userSpaceOnUse"
       id="clipPath30">
      <path
         d="M 0,325.984 H 737.008 V 0 H 0 Z"
         transform="translate(-324.47941,-176.6291)"
         id="path30" />
    </clipPath>
    <clipPath
       clipPathUnits="userSpaceOnUse"
       id="clipPath32">
      <path
         d="M 0,325.984 H 737.008 V 0 H 0 Z"
         transform="translate(-342.45491,-160.59331)"
         id="path32" />
    </clipPath>
    <clipPath
       clipPathUnits="userSpaceOnUse"
       id="clipPath34">
      <path
         d="M 0,325.984 H 737.008 V 0 H 0 Z"
         id="path34" />
    </clipPath>
    <clipPath
       clipPathUnits="userSpaceOnUse"
       id="clipPath36">
      <path
         d="M 0,325.984 H 737.008 V 0 H 0 Z"
         transform="translate(-372.83911,-169.2283)"
         id="path36" />
    </clipPath>
    <clipPath
       clipPathUnits="userSpaceOnUse"
       id="clipPath38">
      <path
         d="M 0,325.984 H 737.008 V 0 H 0 Z"
         transform="translate(-391.67521,-161.60281)"
         id="path38" />
    </clipPath>
    <clipPath
       clipPathUnits="userSpaceOnUse"
       id="clipPath40">
      <path
         d="M 0,325.984 H 737.008 V 0 H 0 Z"
         transform="translate(-410.99741,-169.4896)"
         id="path40" />
    </clipPath>
    <clipPath
       clipPathUnits="userSpaceOnUse"
       id="clipPath42">
      <path
         d="M 0,325.984 H 737.008 V 0 H 0 Z"
         transform="translate(-412.90111,-155.8835)"
         id="path42" />
    </clipPath>
    <clipPath
       clipPathUnits="userSpaceOnUse"
       id="clipPath44">
      <path
         d="M 0,325.984 H 737.008 V 0 H 0 Z"
         id="path44" />
    </clipPath>
    <clipPath
       clipPathUnits="userSpaceOnUse"
       id="clipPath46">
      <path
         d="M 0,325.984 H 737.008 V 0 H 0 Z"
         transform="translate(-442.27671,-166.1626)"
         id="path46" />
    </clipPath>
    <clipPath
       clipPathUnits="userSpaceOnUse"
       id="clipPath48">
      <path
         d="M 0,325.984 H 737.008 V 0 H 0 Z"
         transform="translate(-469.82251,-169.2283)"
         id="path48" />
    </clipPath>
    <clipPath
       clipPathUnits="userSpaceOnUse"
       id="clipPath50">
      <path
         d="M 0,325.984 H 737.008 V 0 H 0 Z"
         transform="translate(-492.09521,-166.1626)"
         id="path50" />
    </clipPath>
    <clipPath
       clipPathUnits="userSpaceOnUse"
       id="clipPath52">
      <path
         d="M 0,325.984 H 737.008 V 0 H 0 Z"
         transform="translate(-506.48351,-169.2283)"
         id="path52" />
    </clipPath>
    <clipPath
       clipPathUnits="userSpaceOnUse"
       id="clipPath54">
      <path
         d="M 0,325.984 H 737.008 V 0 H 0 Z"
         transform="translate(-310.08851,-120.98761)"
         id="path54" />
    </clipPath>
    <clipPath
       clipPathUnits="userSpaceOnUse"
       id="clipPath56">
      <path
         d="M 0,325.984 H 737.008 V 0 H 0 Z"
         transform="translate(-337.96941,-127.9396)"
         id="path56" />
    </clipPath>
    <clipPath
       clipPathUnits="userSpaceOnUse"
       id="clipPath58">
      <path
         d="M 0,325.984 H 737.008 V 0 H 0 Z"
         transform="translate(-360.13131,-127.9396)"
         id="path58" />
    </clipPath>
    <clipPath
       clipPathUnits="userSpaceOnUse"
       id="clipPath60">
      <path
         d="M 0,325.984 H 737.008 V 0 H 0 Z"
         id="path60" />
    </clipPath>
    <clipPath
       clipPathUnits="userSpaceOnUse"
       id="clipPath62">
      <path
         d="M 0,325.984 H 737.008 V 0 H 0 Z"
         id="path62" />
    </clipPath>
    <clipPath
       clipPathUnits="userSpaceOnUse"
       id="clipPath64">
      <path
         d="M 0,325.984 H 737.008 V 0 H 0 Z"
         transform="translate(-404.71731,-123.3799)"
         id="path64" />
    </clipPath>
    <clipPath
       clipPathUnits="userSpaceOnUse"
       id="clipPath66">
      <path
         d="M 0,325.984 H 737.008 V 0 H 0 Z"
         transform="translate(-421.68461,-115.11901)"
         id="path66" />
    </clipPath>
    <clipPath
       clipPathUnits="userSpaceOnUse"
       id="clipPath68">
      <path
         d="M 0,325.984 H 737.008 V 0 H 0 Z"
         transform="translate(-447.35901,-121.0996)"
         id="path68" />
    </clipPath>
    <clipPath
       clipPathUnits="userSpaceOnUse"
       id="clipPath70">
      <path
         d="M 0,325.984 H 737.008 V 0 H 0 Z"
         transform="translate(-480.02521,-118.7447)"
         id="path70" />
    </clipPath>
    <clipPath
       clipPathUnits="userSpaceOnUse"
       id="clipPath72">
      <path
         d="M 0,325.984 H 737.008 V 0 H 0 Z"
         id="path72" />
    </clipPath>
    <clipPath
       clipPathUnits="userSpaceOnUse"
       id="clipPath74">
      <path
         d="M 0,325.984 H 737.008 V 0 H 0 Z"
         transform="translate(-510.03461,-123.3799)"
         id="path74" />
    </clipPath>
    <clipPath
       clipPathUnits="userSpaceOnUse"
       id="clipPath76">
      <path
         d="M 0,325.984 H 737.008 V 0 H 0 Z"
         transform="translate(-531.67441,-122.3704)"
         id="path76" />
    </clipPath>
    <clipPath
       clipPathUnits="userSpaceOnUse"
       id="clipPath78">
      <path
         d="M 0,325.984 H 737.008 V 0 H 0 Z"
         transform="translate(-552.82721,-118.7447)"
         id="path78" />
    </clipPath>
    <clipPath
       clipPathUnits="userSpaceOnUse"
       id="clipPath80">
      <path
         d="M 0,325.984 H 737.008 V 0 H 0 Z"
         transform="translate(-572.97061,-123.3799)"
         id="path80" />
    </clipPath>
    <clipPath
       clipPathUnits="userSpaceOnUse"
       id="clipPath82">
      <path
         d="M 0,325.984 H 737.008 V 0 H 0 Z"
         transform="translate(-580.40701,-117.6605)"
         id="path82" />
    </clipPath>
  </defs>
  <sodipodi:namedview
     id="namedview1"
     pagecolor="#ffffff"
     bordercolor="#999999"
     borderopacity="1"
     inkscape:showpageshadow="2"
     inkscape:pageopacity="0"
     inkscape:pagecheckerboard="0"
     inkscape:deskcolor="#d1d1d1" />
  <g
     id="layer-MC0"
     inkscape:groupmode="layer"
     inkscape:label="Layer 1"
     transform="translate(-137.9532,-122.83133)">
    <path
       id="path1"
       d="M 0,0 H -21.576 L 14.43,-62.365 25.218,-43.679 Z"
       style="fill:#30bbc9;fill-opacity:1;fill-rule:nonzero;stroke:none"
       transform="matrix(1.3333333,0,0,-1.3333333,166.7212,122.83133)" />
    <path
       id="path2"
       d="M 0,0 -42.798,-74.129 -53.587,-92.815 -25.344,-141.732 56.485,0 Z"
       style="fill:#30bbc9;fill-opacity:1;fill-rule:nonzero;stroke:none"
       transform="matrix(1.3333333,0,0,-1.3333333,280.8504,122.83133)" />
    <path
       id="path3"
       d="m 0,0 c -1.832,-6.84 -3.663,-13.681 -5.457,-20.521 h -4.934 L -15.55,5.794 h 4.299 c 1.196,-6.653 2.392,-13.232 3.551,-19.885 l 5.009,19.885 h 5.382 l 4.972,-19.961 4.261,19.961 h 4.261 L 10.354,-20.521 H 5.495 Z"
       style="fill:#03293c;fill-opacity:1;fill-rule:nonzero;stroke:none"
       transform="matrix(1.3333333,0,0,-1.3333333,424.46587,155.90133)"
       clip-path="url(#clipPath4)" />
    <path
       id="path5"
       d="M 0,0 C -0.112,2.803 -1.458,4.597 -4.224,4.597 -6.915,4.597 -8.448,2.355 -8.56,0 Z m 0.86,-4.71 c 1.233,-0.337 2.466,-0.71 3.7,-1.084 -0.86,-2.729 -3.439,-5.869 -8.597,-5.869 -5.196,0 -8.896,4 -8.896,9.831 0,5.831 3.439,9.831 8.709,9.831 5.233,0 8.522,-3.514 8.522,-9.232 0,-0.561 0,-1.159 -0.074,-1.795 H -8.747 c 0.075,-2.766 1.981,-5.233 4.71,-5.233 1.981,0 3.925,0.934 4.897,3.551"
       style="fill:#03293c;fill-opacity:1;fill-rule:nonzero;stroke:none"
       transform="matrix(1.3333333,0,0,-1.3333333,465.02867,168.21093)"
       clip-path="url(#clipPath6)" />
    <path
       id="path7"
       d="m 0,0 c 1.346,0.262 2.654,0.523 3.962,0.747 0.262,-1.494 1.159,-3.289 4.187,-3.289 0.673,0 4,0.262 4,2.654 0,4.523 -11.588,-0.149 -11.588,7.962 0,3.215 3.215,5.644 7.251,5.644 4.037,0 7.476,-1.682 8.037,-5.906 -1.345,-0.224 -2.654,-0.486 -3.962,-0.747 -0.262,2.355 -1.72,3.214 -3.962,3.214 -1.982,0 -3.327,-1.046 -3.327,-2.205 0,-1.533 1.42,-1.944 3.663,-2.168 4.261,-0.449 7.887,-1.383 7.887,-5.794 0,-3.962 -3.476,-6.055 -7.999,-6.055 C 3.29,-5.943 0.523,-3.402 0,0"
       style="fill:#03293c;fill-opacity:1;fill-rule:nonzero;stroke:none"
       transform="matrix(1.3333333,0,0,-1.3333333,475.1904,175.83667)"
       clip-path="url(#clipPath8)" />
    <path
       id="path9"
       d="M 0,0 V 3.065 H 3.252 V 8.523 H 7.289 V 3.065 h 3.925 V 0 H 7.289 v -10.728 c 0,-1.495 0.448,-1.943 1.757,-1.943 0.56,0 1.158,0.074 1.794,0.074 v -3.251 l -2.392,-0.15 H 7.962 c -3.551,0 -4.71,1.907 -4.71,5.532 V 0 Z"
       style="fill:#03293c;fill-opacity:1;fill-rule:nonzero;stroke:none"
       transform="matrix(1.3333333,0,0,-1.3333333,500.20573,162.13133)"
       clip-path="url(#clipPath10)" />
    <path
       id="path11"
       d="M 0,0 C -0.112,2.803 -1.458,4.597 -4.224,4.597 -6.915,4.597 -8.448,2.355 -8.56,0 Z m 0.859,-4.71 c 1.234,-0.337 2.467,-0.71 3.701,-1.084 -0.86,-2.729 -3.439,-5.869 -8.597,-5.869 -5.196,0 -8.896,4 -8.896,9.831 0,5.831 3.439,9.831 8.709,9.831 5.233,0 8.522,-3.514 8.522,-9.232 0,-0.561 0,-1.159 -0.074,-1.795 H -8.747 c 0.075,-2.766 1.981,-5.233 4.71,-5.233 1.981,0 3.925,0.934 4.896,3.551"
       style="fill:#03293c;fill-opacity:1;fill-rule:nonzero;stroke:none"
       transform="matrix(1.3333333,0,0,-1.3333333,536.68453,168.21093)"
       clip-path="url(#clipPath12)" />
    <path
       id="path13"
       d="m 0,0 v -3.476 h -2.131 c -2.766,0 -4.037,-1.832 -4.037,-5.57 v -10.129 h -4.036 v 18.913 h 3.663 l 0.373,-2.056 c 0.71,1.085 2.019,2.43 4.374,2.43 C -1.271,0.112 -0.523,0.075 0,0"
       style="fill:#03293c;fill-opacity:1;fill-rule:nonzero;stroke:none"
       transform="matrix(1.3333333,0,0,-1.3333333,562.69627,157.6952)"
       clip-path="url(#clipPath14)" />
    <path
       id="path15"
       d="M 0,0 C 0,3.887 -1.309,5.569 -4.262,5.569 -7.102,5.569 -8.486,3.738 -8.486,0 v -10.279 h -4.036 V 8.634 h 3.663 l 0.373,-2.055 c 0.636,1.159 2.655,2.429 5.01,2.429 C 1.943,8.971 3.999,6.055 3.999,0 V -10.279 H 0 Z"
       style="fill:#03293c;fill-opacity:1;fill-rule:nonzero;stroke:none"
       transform="matrix(1.3333333,0,0,-1.3333333,584.17453,169.55693)"
       clip-path="url(#clipPath16)" />
    <path
       id="path17"
       d="M 0,0 H 4.074 L 16.222,-19.026 V 0 h 4.187 V -26.315 H 16.297 L 4.186,-7.326 V -26.315 H 0 Z"
       style="fill:#03293c;fill-opacity:1;fill-rule:nonzero;stroke:none"
       transform="matrix(1.3333333,0,0,-1.3333333,608.0396,148.17587)"
       clip-path="url(#clipPath18)" />
    <path
       id="path19"
       d="m 0,0 c -2.916,0 -4.784,-2.28 -4.784,-6.391 0,-4.149 1.868,-6.43 4.784,-6.43 2.878,0 4.785,2.281 4.785,6.43 C 4.785,-2.28 2.878,0 0,0 m 0,-16.222 c -5.495,0 -8.783,3.999 -8.783,9.831 0,5.83 3.288,9.83 8.783,9.83 5.42,0 8.747,-4.037 8.747,-9.83 0,-5.832 -3.327,-9.831 -8.747,-9.831"
       style="fill:#03293c;fill-opacity:1;fill-rule:nonzero;stroke:none"
       transform="matrix(1.3333333,0,0,-1.3333333,652.43947,162.13133)"
       clip-path="url(#clipPath20)" />
    <path
       id="path21"
       d="m 0,0 v -3.476 h -2.131 c -2.766,0 -4.037,-1.832 -4.037,-5.57 v -10.129 h -4.036 v 18.913 h 3.663 l 0.373,-2.056 c 0.711,1.085 2.019,2.43 4.374,2.43 C -1.272,0.112 -0.523,0.075 0,0"
       style="fill:#03293c;fill-opacity:1;fill-rule:nonzero;stroke:none"
       transform="matrix(1.3333333,0,0,-1.3333333,683.73453,157.6952)"
       clip-path="url(#clipPath22)" />
    <path
       id="path23"
       d="m 0,0 -4.299,-13.905 h -4.597 l -4.261,18.913 h 4.186 L -6.392,-8.597 -2.243,5.008 H 2.205 L 6.579,-8.634 9.382,5.008 h 4.186 L 9.083,-13.905 H 4.448 Z"
       style="fill:#03293c;fill-opacity:1;fill-rule:nonzero;stroke:none"
       transform="matrix(1.3333333,0,0,-1.3333333,703.76733,164.72267)"
       clip-path="url(#clipPath24)" />
    <path
       id="path25"
       d="m 0,0 v 0.935 h -4.449 c -3.326,0 -3.999,-1.682 -3.999,-2.617 0,-1.271 0.86,-2.616 3.327,-2.616 C -1.832,-4.298 0,-2.055 0,0 m -7.887,5.084 c -1.309,0.224 -2.654,0.523 -4,0.747 0.412,4.187 3.85,6.13 7.813,6.13 5.345,0 8.11,-2.616 8.11,-7.775 v -6.578 c 0,-1.122 0.225,-1.757 1.01,-1.757 0.299,0 0.785,0.075 0.972,0.149 V -7.289 C 4.859,-7.588 4.112,-7.588 3.626,-7.588 c -1.944,0 -2.991,1.159 -3.29,2.692 -0.747,-0.935 -2.728,-2.73 -5.906,-2.804 -4.373,0 -6.989,2.429 -6.989,6.018 0,2.953 2.728,5.644 7.7,5.644 H 0 v 1.122 c 0,1.457 -0.598,3.438 -4.074,3.438 -2.318,0 -3.738,-1.159 -3.813,-3.438"
       style="fill:#03293c;fill-opacity:1;fill-rule:nonzero;stroke:none"
       transform="matrix(1.3333333,0,0,-1.3333333,741.9372,173.49427)"
       clip-path="url(#clipPath26)" />
    <path
       id="path27"
       d="M 0,0 H 4.186 C 2.055,-5.793 -0.15,-11.55 -2.28,-17.344 l -3.327,-8.971 h -3.925 l 2.691,7.402 L -13.868,0 h 4.186 c 1.645,-4.672 3.215,-9.344 4.859,-13.979 z"
       style="fill:#03293c;fill-opacity:1;fill-rule:nonzero;stroke:none"
       transform="matrix(1.3333333,0,0,-1.3333333,769.14453,158.04467)"
       clip-path="url(#clipPath28)" />
    <path
       id="path29"
       d="m 0,0 v -17.493 c 0,-5.906 -4.448,-9.196 -9.868,-9.196 -5.42,0 -9.943,3.29 -9.943,9.196 V 0 h 4.187 v -17.493 c 0,-3.365 2.542,-5.682 5.756,-5.682 3.177,0 5.719,2.317 5.719,5.682 V 0 Z"
       style="fill:#03293c;fill-opacity:1;fill-rule:nonzero;stroke:none"
       transform="matrix(1.3333333,0,0,-1.3333333,432.6392,199.13987)"
       clip-path="url(#clipPath30)" />
    <path
       id="path31"
       d="M 0,0 C 0,3.888 -1.308,5.569 -4.261,5.569 -7.102,5.569 -8.485,3.738 -8.485,0 v -10.279 h -4.037 V 8.635 h 3.663 l 0.374,-2.056 c 0.636,1.159 2.654,2.429 5.009,2.429 C 1.944,8.971 3.999,6.055 3.999,0 V -10.279 H 0 Z"
       style="fill:#03293c;fill-opacity:1;fill-rule:nonzero;stroke:none"
       transform="matrix(1.3333333,0,0,-1.3333333,456.60653,220.52093)"
       clip-path="url(#clipPath32)" />
    <path
       id="path33"
       d="m 355.87,150.314 h -4.037 v 18.914 h 4.037 z m -4.298,26.315 h 4.56 v -4.523 h -4.56 z"
       style="fill:#03293c;fill-opacity:1;fill-rule:nonzero;stroke:none"
       transform="matrix(1.3333333,0,0,-1.3333333,0,434.64533)"
       clip-path="url(#clipPath34)" />
    <path
       id="path35"
       d="M 0,0 H 4.224 L -2.804,-18.914 H -6.803 L -13.867,0 h 4.223 l 4.822,-13.98 z"
       style="fill:#03293c;fill-opacity:1;fill-rule:nonzero;stroke:none"
       transform="matrix(1.3333333,0,0,-1.3333333,497.1188,209.0076)"
       clip-path="url(#clipPath36)" />
    <path
       id="path37"
       d="M 0,0 C -0.112,2.804 -1.458,4.598 -4.224,4.598 -6.915,4.598 -8.448,2.355 -8.56,0 Z m 0.859,-4.71 c 1.234,-0.337 2.467,-0.71 3.701,-1.084 -0.86,-2.728 -3.439,-5.869 -8.597,-5.869 -5.195,0 -8.896,4 -8.896,9.831 0,5.832 3.439,9.831 8.709,9.831 5.233,0 8.522,-3.514 8.522,-9.232 0,-0.561 0,-1.159 -0.074,-1.795 H -8.747 c 0.075,-2.766 1.982,-5.233 4.71,-5.233 1.981,0 3.925,0.935 4.896,3.551"
       style="fill:#03293c;fill-opacity:1;fill-rule:nonzero;stroke:none"
       transform="matrix(1.3333333,0,0,-1.3333333,522.2336,219.17493)"
       clip-path="url(#clipPath38)" />
    <path
       id="path39"
       d="m 0,0 v -3.476 h -2.131 c -2.766,0 -4.037,-1.832 -4.037,-5.57 v -10.129 h -4.036 v 18.914 h 3.663 l 0.373,-2.057 c 0.711,1.085 2.019,2.43 4.374,2.43 C -1.272,0.112 -0.523,0.075 0,0"
       style="fill:#03293c;fill-opacity:1;fill-rule:nonzero;stroke:none"
       transform="matrix(1.3333333,0,0,-1.3333333,547.99653,208.6592)"
       clip-path="url(#clipPath40)" />
    <path
       id="path41"
       d="m 0,0 c 1.345,0.262 2.654,0.523 3.962,0.748 0.262,-1.495 1.158,-3.29 4.186,-3.29 0.673,0 4,0.263 4,2.655 0,4.522 -11.587,-0.15 -11.587,7.961 0,3.215 3.214,5.644 7.251,5.644 4.036,0 7.476,-1.682 8.036,-5.906 -1.345,-0.224 -2.653,-0.485 -3.961,-0.747 -0.262,2.355 -1.72,3.214 -3.963,3.214 -1.981,0 -3.327,-1.046 -3.327,-2.205 0,-1.533 1.421,-1.943 3.663,-2.168 4.262,-0.449 7.888,-1.383 7.888,-5.793 0,-3.963 -3.477,-6.056 -8,-6.056 C 3.289,-5.943 0.523,-3.401 0,0"
       style="fill:#03293c;fill-opacity:1;fill-rule:nonzero;stroke:none"
       transform="matrix(1.3333333,0,0,-1.3333333,550.5348,226.80067)"
       clip-path="url(#clipPath42)" />
    <path
       id="path43"
       d="m 438.055,150.314 h -4.037 v 18.914 h 4.037 z m -4.299,26.315 h 4.56 v -4.523 h -4.56 z"
       style="fill:#03293c;fill-opacity:1;fill-rule:nonzero;stroke:none"
       transform="matrix(1.3333333,0,0,-1.3333333,0,434.64533)"
       clip-path="url(#clipPath44)" />
    <path
       id="path45"
       d="M 0,0 V 3.066 H 3.252 V 8.523 H 7.289 V 3.066 h 3.925 V 0 H 7.289 v -10.727 c 0,-1.496 0.449,-1.944 1.757,-1.944 0.56,0 1.158,0.074 1.794,0.074 v -3.251 l -2.392,-0.15 H 7.961 c -3.551,0 -4.709,1.907 -4.709,5.532 L 3.252,0 Z"
       style="fill:#03293c;fill-opacity:1;fill-rule:nonzero;stroke:none"
       transform="matrix(1.3333333,0,0,-1.3333333,589.70227,213.0952)"
       clip-path="url(#clipPath46)" />
    <path
       id="path47"
       d="M 0,0 H 4.186 C 2.055,-5.794 -0.15,-11.551 -2.28,-17.344 l -3.327,-8.971 h -3.925 l 2.691,7.401 L -13.868,0 h 4.186 c 1.645,-4.673 3.215,-9.345 4.859,-13.98 z"
       style="fill:#03293c;fill-opacity:1;fill-rule:nonzero;stroke:none"
       transform="matrix(1.3333333,0,0,-1.3333333,626.43,209.0076)"
       clip-path="url(#clipPath48)" />
    <path
       id="path49"
       d="m 0,0 c -2.916,0 -4.785,-2.279 -4.785,-6.391 0,-4.149 1.869,-6.43 4.785,-6.43 2.878,0 4.785,2.281 4.785,6.43 C 4.785,-2.279 2.878,0 0,0 m 0,-16.222 c -5.495,0 -8.783,3.999 -8.783,9.831 0,5.831 3.288,9.83 8.783,9.83 5.42,0 8.747,-4.036 8.747,-9.83 0,-5.832 -3.327,-9.831 -8.747,-9.831"
       style="fill:#03293c;fill-opacity:1;fill-rule:nonzero;stroke:none"
       transform="matrix(1.3333333,0,0,-1.3333333,656.12693,213.0952)"
       clip-path="url(#clipPath50)" />
    <path
       id="path51"
       d="M 0,0 V 2.318 C 0,5.383 1.42,7.401 5.196,7.401 H 7.961 V 3.962 H 5.681 C 4.598,3.962 4.037,3.289 4.037,2.055 V 0 H 7.588 V -3.066 H 4.037 V -18.914 H 0 V -3.066 H -3.252 V 0 Z"
       style="fill:#03293c;fill-opacity:1;fill-rule:nonzero;stroke:none"
       transform="matrix(1.3333333,0,0,-1.3333333,675.31133,209.0076)"
       clip-path="url(#clipPath52)" />
    <path
       id="path53"
       d="M 0,0 H 8.261 L 4.149,11.849 Z M 9.457,-3.551 H -1.196 L -3.065,-8.896 H -7.401 L 2.131,17.418 H 6.13 l 9.532,-26.314 h -4.336 z"
       style="fill:#03293c;fill-opacity:1;fill-rule:nonzero;stroke:none"
       transform="matrix(1.3333333,0,0,-1.3333333,413.45133,273.32853)"
       clip-path="url(#clipPath54)" />
    <path
       id="path55"
       d="m 0,0 c -2.953,0 -4.672,-2.279 -4.672,-6.391 0,-4.149 1.719,-6.43 4.672,-6.43 2.916,0 4.785,2.281 4.785,6.43 C 4.785,-2.279 2.916,0 0,0 m -8.747,3.066 h 3.701 l 0.374,-2.392 c 0.673,1.046 2.766,2.765 5.494,2.765 4.71,0 8.074,-4.036 8.074,-9.83 0,-5.832 -2.99,-9.831 -8.074,-9.831 -2.541,0 -4.747,1.533 -5.494,2.654 v -9.681 h -4.075 z"
       style="fill:#03293c;fill-opacity:1;fill-rule:nonzero;stroke:none"
       transform="matrix(1.3333333,0,0,-1.3333333,450.62587,264.0592)"
       clip-path="url(#clipPath56)" />
    <path
       id="path57"
       d="m 0,0 c -2.953,0 -4.672,-2.279 -4.672,-6.391 0,-4.149 1.719,-6.43 4.672,-6.43 2.916,0 4.785,2.281 4.785,6.43 C 4.785,-2.279 2.916,0 0,0 m -8.746,3.066 h 3.7 l 0.374,-2.392 c 0.673,1.046 2.766,2.765 5.495,2.765 4.71,0 8.073,-4.036 8.073,-9.83 0,-5.832 -2.99,-9.831 -8.073,-9.831 -2.542,0 -4.747,1.533 -5.495,2.654 v -9.681 h -4.074 z"
       style="fill:#03293c;fill-opacity:1;fill-rule:nonzero;stroke:none"
       transform="matrix(1.3333333,0,0,-1.3333333,480.17507,264.0592)"
       clip-path="url(#clipPath58)" />
    <path
       id="path59"
       d="m 377.584,112.091 h -4.037 v 26.315 h 4.037 z"
       style="fill:#03293c;fill-opacity:1;fill-rule:nonzero;stroke:none"
       transform="matrix(1.3333333,0,0,-1.3333333,0,434.64533)"
       clip-path="url(#clipPath60)" />
    <path
       id="path61"
       d="m 387.189,112.091 h -4.037 v 18.914 h 4.037 z m -4.299,26.315 h 4.561 v -4.523 h -4.561 z"
       style="fill:#03293c;fill-opacity:1;fill-rule:nonzero;stroke:none"
       transform="matrix(1.3333333,0,0,-1.3333333,0,434.64533)"
       clip-path="url(#clipPath62)" />
    <path
       id="path63"
       d="M 0,0 C -0.112,2.804 -1.457,4.598 -4.224,4.598 -6.915,4.598 -8.448,2.355 -8.56,0 Z m 0.86,-4.71 c 1.234,-0.337 2.467,-0.71 3.701,-1.084 -0.86,-2.728 -3.44,-5.869 -8.597,-5.869 -5.196,0 -8.897,4 -8.897,9.831 0,5.832 3.439,9.831 8.709,9.831 5.233,0 8.522,-3.514 8.522,-9.232 0,-0.561 0,-1.159 -0.074,-1.795 h -12.97 c 0.074,-2.766 1.981,-5.233 4.71,-5.233 1.981,0 3.924,0.935 4.896,3.551"
       style="fill:#03293c;fill-opacity:1;fill-rule:nonzero;stroke:none"
       transform="matrix(1.3333333,0,0,-1.3333333,539.62307,270.1388)"
       clip-path="url(#clipPath64)" />
    <path
       id="path65"
       d="m 0,0 c 2.916,0 4.673,2.28 4.673,6.429 0,4.112 -1.757,6.392 -4.673,6.392 -2.916,0 -4.859,-2.28 -4.859,-6.392 C -4.859,2.28 -2.916,0 0,0 m 8.746,-3.028 h -3.7 L 4.673,-0.673 C 3.999,-1.72 1.906,-3.402 -0.786,-3.402 c -4.747,0 -8.185,4 -8.185,9.831 0,5.832 3.065,9.831 8.185,9.831 2.543,0 4.71,-1.57 5.459,-2.654 v 9.681 h 4.073 z"
       style="fill:#03293c;fill-opacity:1;fill-rule:nonzero;stroke:none"
       transform="matrix(1.3333333,0,0,-1.3333333,562.24613,281.15333)"
       clip-path="url(#clipPath66)" />
    <path
       id="path67"
       d="m 0,0 c 0,-2.467 1.757,-5.869 6.279,-5.869 3.14,0 5.832,1.533 5.832,4.374 0,3.327 -3.028,3.999 -5.832,4.224 -4.335,0.411 -9.718,1.832 -9.718,7.326 0,5.383 5.083,7.626 9.494,7.626 4.747,0 9.383,-2.841 9.569,-7.663 L 11.662,9.345 c -0.299,3.438 -2.99,4.785 -5.607,4.785 -2.579,0 -5.382,-1.122 -5.382,-4.075 0,-1.757 1.457,-3.327 5.831,-3.812 4.261,-0.486 9.756,-1.533 9.756,-7.738 0,-4.71 -4.075,-7.887 -9.981,-7.887 -7.4,0 -10.316,4.709 -10.465,8.635 z"
       style="fill:#03293c;fill-opacity:1;fill-rule:nonzero;stroke:none"
       transform="matrix(1.3333333,0,0,-1.3333333,596.47867,273.1792)"
       clip-path="url(#clipPath68)" />
    <path
       id="path69"
       d="m 0,0 c 1.345,-0.224 2.691,-0.486 3.999,-0.747 -0.635,-3.103 -3.289,-6.28 -8.26,-6.28 -5.457,0 -8.934,3.962 -8.934,9.831 0,5.831 3.477,9.83 8.934,9.83 4.971,0 7.438,-3.102 8.185,-6.317 C 2.579,6.055 1.233,5.794 -0.075,5.569 -0.71,7.999 -2.28,9.195 -4.224,9.195 c -3.178,0 -4.859,-2.579 -4.859,-6.391 0,-3.813 1.681,-6.43 4.859,-6.43 2.093,0 3.626,1.271 4.224,3.626"
       style="fill:#03293c;fill-opacity:1;fill-rule:nonzero;stroke:none"
       transform="matrix(1.3333333,0,0,-1.3333333,640.0336,276.31907)"
       clip-path="url(#clipPath70)" />
    <path
       id="path71"
       d="m 492.506,112.091 h -4.037 v 18.914 h 4.037 z m -4.299,26.315 h 4.56 v -4.523 h -4.56 z"
       style="fill:#03293c;fill-opacity:1;fill-rule:nonzero;stroke:none"
       transform="matrix(1.3333333,0,0,-1.3333333,0,434.64533)"
       clip-path="url(#clipPath72)" />
    <path
       id="path73"
       d="M 0,0 C -0.112,2.804 -1.457,4.598 -4.224,4.598 -6.915,4.598 -8.448,2.355 -8.56,0 Z m 0.86,-4.71 c 1.234,-0.337 2.467,-0.71 3.701,-1.084 -0.86,-2.728 -3.44,-5.869 -8.597,-5.869 -5.196,0 -8.897,4 -8.897,9.831 0,5.832 3.439,9.831 8.709,9.831 5.233,0 8.522,-3.514 8.522,-9.232 0,-0.561 0,-1.159 -0.074,-1.795 h -12.97 c 0.074,-2.766 1.981,-5.233 4.71,-5.233 1.981,0 3.924,0.935 4.896,3.551"
       style="fill:#03293c;fill-opacity:1;fill-rule:nonzero;stroke:none"
       transform="matrix(1.3333333,0,0,-1.3333333,680.04613,270.1388)"
       clip-path="url(#clipPath74)" />
    <path
       id="path75"
       d="M 0,0 C 0,3.888 -1.308,5.569 -4.261,5.569 -7.101,5.569 -8.485,3.738 -8.485,0 v -10.279 h -4.036 V 8.635 h 3.663 l 0.373,-2.056 c 0.636,1.158 2.654,2.429 5.009,2.429 C 1.944,8.971 4,6.055 4,0 V -10.279 H 0 Z"
       style="fill:#03293c;fill-opacity:1;fill-rule:nonzero;stroke:none"
       transform="matrix(1.3333333,0,0,-1.3333333,708.8992,271.4848)"
       clip-path="url(#clipPath76)" />
    <path
       id="path77"
       d="m 0,0 c 1.345,-0.224 2.691,-0.486 3.999,-0.747 -0.635,-3.103 -3.289,-6.28 -8.26,-6.28 -5.458,0 -8.934,3.962 -8.934,9.831 0,5.831 3.476,9.83 8.934,9.83 4.971,0 7.438,-3.102 8.185,-6.317 C 2.579,6.055 1.233,5.794 -0.075,5.569 -0.71,7.999 -2.28,9.195 -4.224,9.195 c -3.178,0 -4.859,-2.579 -4.859,-6.391 0,-3.813 1.681,-6.43 4.859,-6.43 2.093,0 3.626,1.271 4.224,3.626"
       style="fill:#03293c;fill-opacity:1;fill-rule:nonzero;stroke:none"
       transform="matrix(1.3333333,0,0,-1.3333333,737.10293,276.31907)"
       clip-path="url(#clipPath78)" />
    <path
       id="path79"
       d="M 0,0 C -0.112,2.804 -1.457,4.598 -4.224,4.598 -6.915,4.598 -8.448,2.355 -8.56,0 Z m 0.86,-4.71 c 1.234,-0.337 2.467,-0.71 3.701,-1.084 -0.861,-2.728 -3.44,-5.869 -8.597,-5.869 -5.196,0 -8.897,4 -8.897,9.831 0,5.832 3.439,9.831 8.709,9.831 5.234,0 8.523,-3.514 8.523,-9.232 0,-0.561 0,-1.159 -0.075,-1.795 h -12.97 c 0.074,-2.766 1.981,-5.233 4.71,-5.233 1.981,0 3.924,0.935 4.896,3.551"
       style="fill:#03293c;fill-opacity:1;fill-rule:nonzero;stroke:none"
       transform="matrix(1.3333333,0,0,-1.3333333,763.9608,270.1388)"
       clip-path="url(#clipPath80)" />
    <path
       id="path81"
       d="m 0,0 c 1.345,0.262 2.654,0.523 3.962,0.748 0.262,-1.495 1.158,-3.29 4.186,-3.29 0.673,0 4,0.263 4,2.655 0,4.522 -11.587,-0.15 -11.587,7.961 0,3.215 3.214,5.644 7.251,5.644 4.036,0 7.476,-1.682 8.036,-5.906 -1.345,-0.224 -2.653,-0.485 -3.961,-0.747 -0.262,2.355 -1.72,3.214 -3.963,3.214 -1.981,0 -3.327,-1.046 -3.327,-2.205 0,-1.533 1.421,-1.943 3.663,-2.168 4.262,-0.449 7.888,-1.383 7.888,-5.793 0,-3.963 -3.477,-6.056 -8,-6.056 C 3.289,-5.943 0.523,-3.401 0,0"
       style="fill:#03293c;fill-opacity:1;fill-rule:nonzero;stroke:none"
       transform="matrix(1.3333333,0,0,-1.3333333,773.876,277.76467)"
       clip-path="url(#clipPath82)" />
  </g>
</svg>
